<svg xmlns="http://www.w3.org/2000/svg" xmlns:xlink="http://www.w3.org/1999/xlink" width="1024" zoomAndPan="magnify" viewBox="0 0 768 767.999994" height="1024" preserveAspectRatio="xMidYMid meet" version="1.0"><defs><g/><clipPath id="2bcd96f961"><path d="M 284 295.339844 L 481 295.339844 L 481 489.589844 L 284 489.589844 Z M 284 295.339844 " clip-rule="nonzero"/></clipPath><clipPath id="6762a20e3f"><path d="M 316.988281 328.300781 L 438.199219 328.300781 L 438.199219 449.511719 L 316.988281 449.511719 Z M 316.988281 328.300781 " clip-rule="nonzero"/></clipPath><clipPath id="293b293855"><path d="M 377.59375 328.300781 C 344.121094 328.300781 316.988281 355.4375 316.988281 388.90625 C 316.988281 422.378906 344.121094 449.511719 377.59375 449.511719 C 411.0625 449.511719 438.199219 422.378906 438.199219 388.90625 C 438.199219 355.4375 411.0625 328.300781 377.59375 328.300781 Z M 377.59375 328.300781 " clip-rule="nonzero"/></clipPath><clipPath id="fec022a941"><path d="M 0.988281 0.300781 L 122.199219 0.300781 L 122.199219 121.511719 L 0.988281 121.511719 Z M 0.988281 0.300781 " clip-rule="nonzero"/></clipPath><clipPath id="ba3323f3eb"><path d="M 61.59375 0.300781 C 28.121094 0.300781 0.988281 27.4375 0.988281 60.90625 C 0.988281 94.378906 28.121094 121.511719 61.59375 121.511719 C 95.0625 121.511719 122.199219 94.378906 122.199219 60.90625 C 122.199219 27.4375 95.0625 0.300781 61.59375 0.300781 Z M 61.59375 0.300781 " clip-rule="nonzero"/></clipPath><clipPath id="407866b0d9"><rect x="0" width="123" y="0" height="122"/></clipPath><clipPath id="79f13e732e"><rect x="0" width="105" y="0" height="68"/></clipPath></defs><g clip-path="url(#2bcd96f961)"><path fill="#3d3838" d="M 382.5 295.339844 C 328.390625 295.339844 284.5 335.976562 284.5 386.09375 C 284.519531 389.257812 284.707031 392.40625 285.066406 395.550781 C 285.425781 398.691406 285.953125 401.804688 286.652344 404.886719 C 287.347656 407.972656 288.210938 411.007812 289.238281 414 C 290.265625 416.992188 291.449219 419.917969 292.792969 422.777344 C 294.136719 425.640625 295.628906 428.421875 297.277344 431.121094 C 298.921875 433.824219 300.707031 436.425781 302.636719 438.933594 C 304.5625 441.441406 306.621094 443.835938 308.808594 446.117188 C 310.996094 448.402344 313.296875 450.558594 315.71875 452.59375 C 316.550781 453.308594 317.296875 454.105469 317.960938 454.980469 C 318.621094 455.855469 319.179688 456.792969 319.640625 457.789062 C 320.097656 458.785156 320.445312 459.820312 320.683594 460.890625 C 320.917969 461.960938 321.039062 463.046875 321.039062 464.144531 L 321.039062 485.320312 C 320.996094 485.972656 321.128906 486.59375 321.4375 487.171875 C 321.742188 487.753906 322.179688 488.210938 322.742188 488.546875 C 323.308594 488.882812 323.917969 489.046875 324.574219 489.039062 C 325.230469 489.03125 325.839844 488.851562 326.394531 488.503906 L 349.179688 476.007812 C 350.773438 475.117188 352.476562 474.535156 354.285156 474.261719 C 356.09375 473.992188 357.890625 474.046875 359.679688 474.433594 C 367.21875 476.097656 374.847656 476.925781 382.570312 476.917969 C 436.679688 476.917969 480.566406 436.285156 480.566406 386.164062 C 480.566406 336.042969 436.609375 295.339844 382.5 295.339844 Z M 431.777344 376.46875 L 395.765625 417.070312 C 395.527344 417.335938 395.269531 417.578125 394.988281 417.796875 C 394.707031 418.011719 394.40625 418.203125 394.089844 418.363281 C 393.769531 418.523438 393.441406 418.652344 393.097656 418.753906 C 392.757812 418.851562 392.40625 418.914062 392.054688 418.949219 C 391.699219 418.980469 391.34375 418.980469 390.988281 418.945312 C 390.636719 418.910156 390.285156 418.839844 389.945312 418.738281 C 389.605469 418.640625 389.273438 418.507812 388.957031 418.34375 C 388.640625 418.179688 388.34375 417.988281 388.0625 417.769531 L 375.707031 408.039062 C 374.414062 407.019531 373.015625 406.175781 371.515625 405.503906 C 370.011719 404.832031 368.449219 404.355469 366.828125 404.070312 C 365.203125 403.789062 363.574219 403.707031 361.929688 403.824219 C 360.289062 403.945312 358.6875 404.265625 357.125 404.785156 L 337.417969 411.292969 C 336.839844 411.484375 336.242188 411.578125 335.628906 411.578125 C 335.019531 411.574219 334.421875 411.472656 333.84375 411.277344 C 333.265625 411.078125 332.730469 410.796875 332.242188 410.425781 C 331.757812 410.054688 331.34375 409.613281 331 409.109375 C 330.652344 408.601562 330.398438 408.054688 330.234375 407.464844 C 330.066406 406.878906 330 406.277344 330.03125 405.667969 C 330.058594 405.054688 330.1875 404.464844 330.410156 403.894531 C 330.628906 403.324219 330.9375 402.804688 331.328125 402.335938 L 368.5 358.164062 C 368.742188 357.875 369.011719 357.613281 369.308594 357.378906 C 369.605469 357.144531 369.921875 356.941406 370.257812 356.769531 C 370.59375 356.597656 370.945312 356.460938 371.308594 356.359375 C 371.675781 356.257812 372.046875 356.195312 372.421875 356.167969 C 372.800781 356.144531 373.175781 356.15625 373.550781 356.203125 C 373.925781 356.253906 374.292969 356.339844 374.648438 356.464844 C 375.007812 356.585938 375.347656 356.746094 375.675781 356.9375 C 376 357.128906 376.304688 357.351562 376.582031 357.605469 L 389.078125 368.839844 C 390.390625 370.027344 391.832031 371.023438 393.410156 371.828125 C 394.984375 372.632812 396.640625 373.214844 398.371094 373.578125 C 400.101562 373.941406 401.851562 374.070312 403.617188 373.96875 C 405.382812 373.863281 407.105469 373.53125 408.785156 372.96875 L 425.792969 367.265625 C 426.390625 367.046875 427.007812 366.933594 427.644531 366.925781 C 428.28125 366.917969 428.902344 367.011719 429.507812 367.214844 C 430.109375 367.417969 430.664062 367.714844 431.167969 368.101562 C 431.671875 368.492188 432.097656 368.953125 432.445312 369.488281 C 432.792969 370.023438 433.042969 370.597656 433.191406 371.214844 C 433.34375 371.835938 433.390625 372.460938 433.328125 373.09375 C 433.269531 373.730469 433.105469 374.335938 432.839844 374.914062 C 432.574219 375.492188 432.21875 376.011719 431.777344 376.46875 Z M 431.777344 376.46875 " fill-opacity="1" fill-rule="nonzero"/></g><g clip-path="url(#6762a20e3f)"><g clip-path="url(#293b293855)"><g transform="matrix(1, 0, 0, 1, 316, 328)"><g clip-path="url(#407866b0d9)"><g clip-path="url(#fec022a941)"><g clip-path="url(#ba3323f3eb)"><path fill="#3d3838" d="M 0.988281 0.300781 L 122.199219 0.300781 L 122.199219 121.511719 L 0.988281 121.511719 Z M 0.988281 0.300781 " fill-opacity="1" fill-rule="nonzero"/></g></g></g></g></g></g><g transform="matrix(1, 0, 0, 1, 330, 350)"><g clip-path="url(#79f13e732e)"><g fill="#b1577c" fill-opacity="1"><g transform="translate(0.425905, 52.919905)"><g><path d="M 31.5 -29.21875 C 30.363281 -29.21875 28.609375 -29.3125 26.234375 -29.5 C 23.921875 -29.664062 22.160156 -29.738281 20.953125 -29.71875 L 19.3125 -29.71875 C 19.363281 -27.59375 19.570312 -24.140625 19.9375 -19.359375 C 20.28125 -14.898438 20.453125 -11.4375 20.453125 -8.96875 C 20.453125 -8.4375 20.503906 -7.617188 20.609375 -6.515625 C 20.710938 -5.421875 20.765625 -4.597656 20.765625 -4.046875 C 20.765625 -2.992188 20.597656 -2.09375 20.265625 -1.34375 C 19.828125 -0.320312 19.15625 0.1875 18.25 0.1875 C 17.632812 0.1875 17.078125 -0.0234375 16.578125 -0.453125 C 16.085938 -0.890625 15.84375 -1.445312 15.84375 -2.125 C 15.84375 -2.351562 15.878906 -2.695312 15.953125 -3.15625 C 16.035156 -3.625 16.078125 -3.972656 16.078125 -4.203125 C 16.078125 -4.960938 16.023438 -6.097656 15.921875 -7.609375 C 15.828125 -9.117188 15.78125 -10.257812 15.78125 -11.03125 C 15.78125 -13.238281 15.601562 -16.335938 15.25 -20.328125 C 14.875 -24.648438 14.664062 -27.75 14.625 -29.625 L 12.515625 -29.609375 C 9.140625 -29.609375 6.488281 -29.851562 4.5625 -30.34375 C 3.3125 -30.664062 2.6875 -31.429688 2.6875 -32.640625 C 2.6875 -33.273438 2.882812 -33.832031 3.28125 -34.3125 C 3.75 -34.84375 4.34375 -35.085938 5.0625 -35.046875 C 5.601562 -35.015625 6.835938 -34.875 8.765625 -34.625 C 10.304688 -34.4375 11.554688 -34.34375 12.515625 -34.34375 C 13.441406 -34.34375 14.84375 -34.363281 16.71875 -34.40625 C 18.601562 -34.445312 20.007812 -34.46875 20.9375 -34.46875 C 22.125 -34.46875 23.882812 -34.378906 26.21875 -34.203125 C 28.550781 -34.035156 30.3125 -33.953125 31.5 -33.953125 C 32.164062 -33.953125 32.722656 -33.722656 33.171875 -33.265625 C 33.617188 -32.816406 33.84375 -32.253906 33.84375 -31.578125 C 33.84375 -30.910156 33.617188 -30.347656 33.171875 -29.890625 C 32.722656 -29.441406 32.164062 -29.21875 31.5 -29.21875 Z M 31.5 -29.21875 "/></g></g></g><g fill="#b1577c" fill-opacity="1"><g transform="translate(32.626724, 52.919905)"><g><path d="M 24.890625 -0.15625 C 22.503906 1.476562 19.070312 2.296875 14.59375 2.296875 C 13.46875 2.296875 12.179688 2.117188 10.734375 1.765625 C 8.992188 1.347656 7.679688 0.804688 6.796875 0.140625 L 6.5625 0.140625 C 5.90625 0.140625 5.351562 -0.0859375 4.90625 -0.546875 C 4.457031 -1.015625 4.234375 -1.582031 4.234375 -2.25 C 4.234375 -3.863281 4.304688 -6.285156 4.453125 -9.515625 C 4.597656 -12.742188 4.671875 -15.171875 4.671875 -16.796875 C 4.671875 -18.597656 4.632812 -21.289062 4.5625 -24.875 C 4.5 -28.457031 4.46875 -31.15625 4.46875 -32.96875 C 4.46875 -33.59375 4.789062 -34.253906 5.4375 -34.953125 C 6.082031 -35.648438 6.726562 -36 7.375 -36 C 7.75 -36 8.984375 -35.476562 11.078125 -34.4375 C 13.453125 -33.28125 14.828125 -32.644531 15.203125 -32.53125 C 19.578125 -31.03125 23.304688 -28.726562 26.390625 -25.625 C 30.015625 -21.96875 31.828125 -17.953125 31.828125 -13.578125 C 31.828125 -10.941406 31.207031 -8.410156 29.96875 -5.984375 C 28.726562 -3.566406 27.035156 -1.625 24.890625 -0.15625 Z M 20.03125 -24.640625 C 18.457031 -25.671875 14.828125 -27.441406 9.140625 -29.953125 L 9.25 -23.296875 L 9.328125 -16.65625 L 8.953125 -4.03125 C 9.054688 -3.976562 9.21875 -3.875 9.4375 -3.71875 C 10.789062 -2.8125 12.503906 -2.359375 14.578125 -2.359375 C 18.085938 -2.359375 20.644531 -2.898438 22.25 -3.984375 C 23.75 -4.992188 24.941406 -6.359375 25.828125 -8.078125 C 26.710938 -9.796875 27.15625 -11.59375 27.15625 -13.46875 C 27.15625 -17.8125 24.78125 -21.535156 20.03125 -24.640625 Z M 20.03125 -24.640625 "/></g></g></g><g fill="#b1577c" fill-opacity="1"><g transform="translate(66.816962, 52.919905)"><g><path d="M 35.640625 -5.140625 C 35.640625 -4.398438 35.519531 -3.164062 35.28125 -1.4375 C 35.03125 0.121094 34.203125 0.90625 32.796875 0.90625 C 31.953125 0.90625 30.941406 0.347656 29.765625 -0.765625 C 23.492188 -6.703125 16.296875 -15.269531 8.171875 -26.46875 L 8.046875 -21.21875 L 7.984375 -15.9375 C 7.984375 -14.65625 8.007812 -12.734375 8.0625 -10.171875 C 8.113281 -7.617188 8.140625 -5.691406 8.140625 -4.390625 C 8.140625 -0.242188 7.335938 1.828125 5.734375 1.828125 C 4.890625 1.828125 4.21875 1.554688 3.71875 1.015625 C 3.269531 0.535156 3.046875 -0.03125 3.046875 -0.6875 C 3.046875 -1.34375 3.097656 -2.320312 3.203125 -3.625 C 3.304688 -4.9375 3.359375 -5.914062 3.359375 -6.5625 C 3.359375 -7.519531 3.390625 -8.953125 3.453125 -10.859375 C 3.515625 -12.765625 3.546875 -14.195312 3.546875 -15.15625 C 3.546875 -16.164062 3.519531 -17.703125 3.46875 -19.765625 C 3.425781 -21.828125 3.40625 -23.363281 3.40625 -24.375 C 3.40625 -25.351562 3.3125 -26.800781 3.125 -28.71875 C 2.9375 -30.632812 2.84375 -32.082031 2.84375 -33.0625 C 2.84375 -33.769531 3.144531 -34.414062 3.75 -35 C 4.363281 -35.582031 5.054688 -35.875 5.828125 -35.875 C 6.648438 -35.875 7.660156 -34.976562 8.859375 -33.1875 C 12.703125 -27.4375 16.15625 -22.660156 19.21875 -18.859375 C 22.875 -14.335938 26.882812 -10.019531 31.25 -5.90625 C 31.300781 -6.5625 31.300781 -7.539062 31.25 -8.84375 L 31.1875 -11.75 C 31.1875 -18.519531 30.921875 -23.910156 30.390625 -27.921875 C 30.328125 -28.316406 30.117188 -29.125 29.765625 -30.34375 C 29.460938 -31.394531 29.3125 -32.210938 29.3125 -32.796875 C 29.3125 -34.585938 30.128906 -35.484375 31.765625 -35.484375 C 34.441406 -35.484375 35.78125 -30.476562 35.78125 -20.46875 C 35.78125 -18.757812 35.753906 -16.203125 35.703125 -12.796875 C 35.660156 -9.398438 35.640625 -6.847656 35.640625 -5.140625 Z M 35.640625 -5.140625 "/></g></g></g></g></g></svg>